<svg xmlns="http://www.w3.org/2000/svg" version="1.1" xmlns:xlink="http://www.w3.org/1999/xlink" xmlns:svgjs="http://svgjs.dev/svgjs" width="36" height="36"><svg width="36" height="36" viewBox="0 0 36 36" fill="none" xmlns="http://www.w3.org/2000/svg">
<path d="M9.7156 17.9806C12.3623 17.9806 14.5079 15.835 14.5079 13.1883V9.44802C14.5079 6.80133 12.3623 4.65576 9.7156 4.65576C7.06891 4.65576 4.92334 6.80133 4.92334 9.44802V13.1883C4.92334 15.835 7.06891 17.9806 9.7156 17.9806Z" stroke="#1F7EAD" stroke-width="3.04962"></path>
<path d="M2.96283 21.3193C4.54877 23.4169 7.0719 24.4811 9.60665 24.5346M9.60665 24.5346C12.1414 24.4811 14.6645 23.4169 16.2505 21.3193M9.60665 24.5346V30.686" stroke="#1F7EAD" stroke-width="3.04962" stroke-linecap="round" stroke-linejoin="round"></path>
<path d="M15.79 30.5773C20.1679 30.5773 22.24 30.5773 24.7458 26.4873M24.7458 26.4873C24.7458 26.4873 29.2933 18.1596 29.2933 15.68C29.2933 13.2005 27.3026 11.1904 24.8469 11.1904C22.3912 11.1904 20.4005 13.2005 20.4005 15.68C20.4005 18.1596 24.7458 26.4873 24.7458 26.4873ZM24.7458 26.4873C27.2517 30.5773 29.3237 30.5773 33.7017 30.5773" stroke="#1F7EAD" stroke-width="3.04962" stroke-linecap="round" stroke-linejoin="round"></path>
<path d="M22.132 4.65576H27.3599" stroke="#1F7EAD" stroke-width="3.04962" stroke-linecap="round" stroke-linejoin="round"></path>
</svg><style>@media (prefers-color-scheme: light) { :root { filter: none; } }
@media (prefers-color-scheme: dark) { :root { filter: none; } }
</style></svg>
