<svg width="24" height="24" viewBox="0 0 24 24" fill="none" xmlns="http://www.w3.org/2000/svg">
<path d="M0 12C0 5.37258 5.37258 0 12 0V0C18.6274 0 24 5.37258 24 12V12C24 18.6274 18.6274 24 12 24V24C5.37258 24 0 18.6274 0 12V12Z" fill="#47C2FF"/>
<path fill-rule="evenodd" clip-rule="evenodd" d="M15.5369 14.401C16.8629 15.727 19.0128 15.727 20.3388 14.401C21.6648 13.0749 21.6648 10.9251 20.3388 9.59902C19.0128 8.27306 16.8629 8.27306 15.5369 9.59902L13.136 12L15.5369 14.401Z" fill="url(#paint0_linear_2542_10481)" fill-opacity="0.72"/>
<path fill-rule="evenodd" clip-rule="evenodd" d="M14.401 20.3387C15.727 19.0127 15.727 16.8628 14.401 15.5368L12 13.1358L9.59908 15.5368C8.27312 16.8628 8.27312 19.0127 9.59908 20.3387C10.9251 21.6647 13.075 21.6647 14.401 20.3387Z" fill="url(#paint1_linear_2542_10481)" fill-opacity="0.64"/>
<path fill-rule="evenodd" clip-rule="evenodd" d="M3.66112 14.401C2.33513 13.0749 2.33513 10.9251 3.66112 9.59902C4.98718 8.27306 7.13704 8.27306 8.46307 9.59902L10.864 12L8.46307 14.401C7.13704 15.727 4.98718 15.727 3.66112 14.401Z" fill="url(#paint2_linear_2542_10481)" fill-opacity="0.56"/>
<path fill-rule="evenodd" clip-rule="evenodd" d="M14.401 8.46305C15.727 7.13701 15.727 4.98715 14.401 3.66111C13.075 2.33509 10.9251 2.33509 9.59908 3.66111C8.27312 4.98715 8.27312 7.13701 9.59908 8.46305L12 10.864L14.401 8.46305Z" fill="url(#paint3_linear_2542_10481)" fill-opacity="0.8"/>
<defs>
<linearGradient id="paint0_linear_2542_10481" x1="12" y1="2.66657" x2="12" y2="30.972" gradientUnits="userSpaceOnUse">
<stop offset="0.313079" stop-color="white"/>
<stop offset="1" stop-color="white" stop-opacity="0"/>
</linearGradient>
<linearGradient id="paint1_linear_2542_10481" x1="12" y1="2.66656" x2="12" y2="30.972" gradientUnits="userSpaceOnUse">
<stop offset="0.313079" stop-color="white"/>
<stop offset="1" stop-color="white" stop-opacity="0"/>
</linearGradient>
<linearGradient id="paint2_linear_2542_10481" x1="12" y1="2.66657" x2="12" y2="30.972" gradientUnits="userSpaceOnUse">
<stop offset="0.313079" stop-color="white"/>
<stop offset="1" stop-color="white" stop-opacity="0"/>
</linearGradient>
<linearGradient id="paint3_linear_2542_10481" x1="12" y1="2.6666" x2="12" y2="30.972" gradientUnits="userSpaceOnUse">
<stop offset="0.313079" stop-color="white"/>
<stop offset="1" stop-color="white" stop-opacity="0"/>
</linearGradient>
</defs>
</svg>
