<svg width="140" height="50" viewBox="0 0 140 50" fill="none" xmlns="http://www.w3.org/2000/svg">
<rect width="140" height="50" fill="white"/>
<path d="M0 25C0 13.9543 8.95431 5 20 5V5C31.0457 5 40 13.9543 40 25V25C40 36.0457 31.0457 45 20 45V45C8.95431 45 0 36.0457 0 25V25Z" fill="#47C2FF"/>
<path fill-rule="evenodd" clip-rule="evenodd" d="M25.8949 29.0016C28.1049 31.2117 31.688 31.2117 33.8981 29.0016C36.108 26.7916 36.108 23.2085 33.8981 20.9984C31.688 18.7885 28.1049 18.7885 25.8949 20.9984L21.8933 25.0001L25.8949 29.0016Z" fill="url(#paint0_linear_2542_10499)" fill-opacity="0.72"/>
<path fill-rule="evenodd" clip-rule="evenodd" d="M24.0017 38.8978C26.2117 36.6878 26.2117 33.1047 24.0017 30.8946L20.0001 26.8931L15.9985 30.8946C13.7886 33.1047 13.7886 36.6878 15.9985 38.8978C18.2086 41.1079 21.7917 41.1079 24.0017 38.8978Z" fill="url(#paint1_linear_2542_10499)" fill-opacity="0.64"/>
<path fill-rule="evenodd" clip-rule="evenodd" d="M6.10182 29.0016C3.89184 26.7916 3.89184 23.2085 6.10182 20.9984C8.31192 18.7885 11.895 18.7885 14.1051 20.9984L18.1066 25.0001L14.1051 29.0016C11.895 31.2117 8.31192 31.2117 6.10182 29.0016Z" fill="url(#paint2_linear_2542_10499)" fill-opacity="0.56"/>
<path fill-rule="evenodd" clip-rule="evenodd" d="M24.0017 19.1051C26.2117 16.895 26.2117 13.3119 24.0017 11.1019C21.7917 8.89183 18.2086 8.89183 15.9985 11.1019C13.7886 13.3119 13.7886 16.895 15.9985 19.1051L20.0001 23.1066L24.0017 19.1051Z" fill="url(#paint3_linear_2542_10499)" fill-opacity="0.8"/>
<path d="M126.254 23.5597L123.944 23.9687C123.847 23.6733 123.694 23.392 123.484 23.125C123.279 22.8579 123.001 22.6392 122.648 22.4687C122.296 22.2983 121.856 22.2131 121.327 22.2131C120.606 22.2131 120.004 22.375 119.521 22.6989C119.038 23.017 118.796 23.429 118.796 23.9347C118.796 24.3722 118.958 24.7244 119.282 24.9915C119.606 25.2585 120.129 25.4773 120.85 25.6477L122.93 26.125C124.134 26.4034 125.032 26.8324 125.623 27.4119C126.214 27.9915 126.509 28.7443 126.509 29.6705C126.509 30.4545 126.282 31.1534 125.827 31.767C125.379 32.375 124.751 32.8523 123.944 33.1989C123.143 33.5454 122.214 33.7187 121.157 33.7187C119.691 33.7187 118.495 33.4062 117.569 32.7812C116.643 32.1506 116.075 31.2557 115.864 30.0966L118.327 29.7216C118.481 30.3636 118.796 30.8494 119.273 31.179C119.751 31.5028 120.373 31.6648 121.14 31.6648C121.975 31.6648 122.643 31.4915 123.143 31.1449C123.643 30.7926 123.893 30.3636 123.893 29.858C123.893 29.4489 123.739 29.1051 123.433 28.8267C123.131 28.5483 122.668 28.3381 122.043 28.196L119.827 27.7102C118.606 27.4318 117.702 26.9886 117.117 26.3807C116.538 25.7727 116.248 25.0028 116.248 24.071C116.248 23.2983 116.464 22.6222 116.896 22.0426C117.327 21.4631 117.924 21.0114 118.685 20.6875C119.447 20.3579 120.319 20.1932 121.302 20.1932C122.717 20.1932 123.83 20.5 124.643 21.1136C125.455 21.7216 125.992 22.5369 126.254 23.5597Z" fill="#0E121B"/>
<path d="M107.233 33.4545V20.3636H109.696V22.4432H109.832C110.071 21.7386 110.491 21.1846 111.094 20.7812C111.702 20.3721 112.389 20.1676 113.156 20.1676C113.315 20.1676 113.503 20.1733 113.719 20.1846C113.94 20.196 114.114 20.2102 114.239 20.2273V22.6648C114.136 22.6364 113.955 22.6051 113.693 22.571C113.432 22.5312 113.17 22.5114 112.909 22.5114C112.307 22.5114 111.77 22.6392 111.298 22.8949C110.832 23.1449 110.463 23.4943 110.19 23.9432C109.918 24.3864 109.781 24.892 109.781 25.4602V33.4545H107.233Z" fill="#0E121B"/>
<path d="M98.7891 33.7187C97.4993 33.7187 96.3885 33.4432 95.4567 32.892C94.5306 32.3352 93.8146 31.554 93.309 30.5483C92.809 29.5369 92.559 28.3523 92.559 26.9943C92.559 25.6534 92.809 24.4716 93.309 23.4489C93.8146 22.4261 94.5192 21.6278 95.4226 21.054C96.3317 20.4801 97.3942 20.1932 98.6101 20.1932C99.3487 20.1932 100.065 20.3153 100.758 20.5597C101.451 20.804 102.073 21.1875 102.624 21.7102C103.175 22.2329 103.61 22.9119 103.928 23.7472C104.246 24.5767 104.406 25.5852 104.406 26.7727V27.6761H93.9993V25.767H101.908C101.908 25.0966 101.772 24.5028 101.499 23.9858C101.227 23.4631 100.843 23.0511 100.349 22.75C99.8601 22.4489 99.2862 22.2983 98.6271 22.2983C97.9112 22.2983 97.2862 22.4744 96.7521 22.8267C96.2237 23.1733 95.8146 23.6278 95.5249 24.1903C95.2408 24.7472 95.0987 25.3523 95.0987 26.0057V27.4972C95.0987 28.3722 95.2521 29.1165 95.559 29.7301C95.8715 30.3437 96.3061 30.8125 96.8629 31.1364C97.4198 31.4545 98.0703 31.6136 98.8146 31.6136C99.2976 31.6136 99.7379 31.5454 100.136 31.4091C100.533 31.267 100.877 31.0568 101.167 30.7784C101.457 30.5 101.678 30.1562 101.832 29.7472L104.244 30.1818C104.05 30.892 103.704 31.5142 103.204 32.0483C102.71 32.5767 102.087 32.9886 101.337 33.2841C100.593 33.5739 99.7436 33.7187 98.7891 33.7187Z" fill="#0E121B"/>
<path d="M90.4687 20.3636V22.4091H83.3182V20.3636H90.4687ZM85.2358 17.2273H87.7841V29.6108C87.7841 30.1051 87.8579 30.4773 88.0057 30.7273C88.1534 30.9716 88.3437 31.1392 88.5767 31.2301C88.8153 31.3153 89.0739 31.3579 89.3523 31.3579C89.5568 31.3579 89.7358 31.3437 89.8892 31.3153C90.0426 31.2869 90.1619 31.2642 90.2472 31.2472L90.7074 33.3523C90.5597 33.4091 90.3494 33.4659 90.0767 33.5227C89.804 33.5852 89.4631 33.6193 89.054 33.625C88.3835 33.6364 87.7585 33.517 87.179 33.267C86.5994 33.017 86.1307 32.6307 85.7727 32.1079C85.4148 31.5852 85.2358 30.929 85.2358 30.1392V17.2273Z" fill="#0E121B"/>
<path d="M81.5391 20.3636V22.4091H74.3885V20.3636H81.5391ZM76.3061 17.2273H78.8544V29.6108C78.8544 30.1051 78.9283 30.4773 79.076 30.7273C79.2237 30.9716 79.4141 31.1392 79.647 31.2301C79.8856 31.3153 80.1442 31.3579 80.4226 31.3579C80.6271 31.3579 80.8061 31.3437 80.9595 31.3153C81.1129 31.2869 81.2322 31.2642 81.3175 31.2472L81.7777 33.3523C81.63 33.4091 81.4197 33.4659 81.147 33.5227C80.8743 33.5852 80.5334 33.6193 80.1243 33.625C79.4538 33.6364 78.8288 33.517 78.2493 33.267C77.6697 33.017 77.201 32.6307 76.843 32.1079C76.4851 31.5852 76.3061 30.929 76.3061 30.1392V17.2273Z" fill="#0E121B"/>
<path d="M66.9844 33.7187C65.6946 33.7187 64.5838 33.4432 63.652 32.892C62.7259 32.3352 62.01 31.554 61.5043 30.5483C61.0043 29.5369 60.7543 28.3523 60.7543 26.9943C60.7543 25.6534 61.0043 24.4716 61.5043 23.4489C62.01 22.4261 62.7145 21.6278 63.6179 21.054C64.527 20.4801 65.5895 20.1932 66.8054 20.1932C67.544 20.1932 68.26 20.3153 68.9531 20.5597C69.6463 20.804 70.2685 21.1875 70.8196 21.7102C71.3708 22.2329 71.8054 22.9119 72.1236 23.7472C72.4418 24.5767 72.6009 25.5852 72.6009 26.7727V27.6761H62.1946V25.767H70.1037C70.1037 25.0966 69.9673 24.5028 69.6946 23.9858C69.4219 23.4631 69.0384 23.0511 68.544 22.75C68.0554 22.4489 67.4815 22.2983 66.8225 22.2983C66.1065 22.2983 65.4815 22.4744 64.9475 22.8267C64.419 23.1733 64.01 23.6278 63.7202 24.1903C63.4361 24.7472 63.294 25.3523 63.294 26.0057V27.4972C63.294 28.3722 63.4475 29.1165 63.7543 29.7301C64.0668 30.3437 64.5014 30.8125 65.0583 31.1364C65.6151 31.4545 66.2656 31.6136 67.01 31.6136C67.4929 31.6136 67.9332 31.5454 68.331 31.4091C68.7287 31.267 69.0725 31.0568 69.3622 30.7784C69.652 30.5 69.8736 30.1562 70.027 29.7472L72.4389 30.1818C72.2458 30.892 71.8992 31.5142 71.3992 32.0483C70.9048 32.5767 70.2827 32.9886 69.5327 33.2841C68.7884 33.5739 67.9389 33.7187 66.9844 33.7187Z" fill="#0E121B"/>
<path d="M48 33.4545V16H50.6335V31.1875H58.5426V33.4545H48Z" fill="#0E121B"/>
<defs>
<linearGradient id="paint0_linear_2542_10499" x1="20" y1="9.4443" x2="20" y2="56.62" gradientUnits="userSpaceOnUse">
<stop offset="0.313079" stop-color="white"/>
<stop offset="1" stop-color="white" stop-opacity="0"/>
</linearGradient>
<linearGradient id="paint1_linear_2542_10499" x1="20" y1="9.44427" x2="20" y2="56.6199" gradientUnits="userSpaceOnUse">
<stop offset="0.313079" stop-color="white"/>
<stop offset="1" stop-color="white" stop-opacity="0"/>
</linearGradient>
<linearGradient id="paint2_linear_2542_10499" x1="19.9999" y1="9.4443" x2="19.9999" y2="56.62" gradientUnits="userSpaceOnUse">
<stop offset="0.313079" stop-color="white"/>
<stop offset="1" stop-color="white" stop-opacity="0"/>
</linearGradient>
<linearGradient id="paint3_linear_2542_10499" x1="20" y1="9.44434" x2="20" y2="56.62" gradientUnits="userSpaceOnUse">
<stop offset="0.313079" stop-color="white"/>
<stop offset="1" stop-color="white" stop-opacity="0"/>
</linearGradient>
</defs>
</svg>
