<svg width="149" height="48" viewBox="0 0 149 48" fill="none" xmlns="http://www.w3.org/2000/svg">
<rect width="148.5" height="47.5541" fill="white"/>
<path d="M44.0786 13.3901H45.7759C46.4573 13.3901 47.0118 13.9446 47.0118 14.6261V32.9195H55.9173C56.5987 32.9195 57.1532 33.474 57.1532 34.1554V35.1797C57.1532 35.8612 56.5987 36.4157 55.9173 36.4157H44.0786C43.3971 36.4157 42.8427 35.8612 42.8427 35.1797V14.6261C42.8427 13.9446 43.3971 13.3901 44.0786 13.3901Z" fill="#1F7EAD"/>
<path d="M58.8293 27.8867C58.8293 22.5579 62.0546 18.9263 67.0025 18.9263C71.2521 18.9263 74.8964 21.5928 74.8964 27.6497V27.6624C74.8964 28.3439 74.3419 28.8983 73.6605 28.8983H62.8673C62.9011 31.857 64.645 33.5881 67.2734 33.5881C68.6236 33.5881 69.7368 33.1394 70.4225 32.2633C70.8627 31.6919 71.2648 31.3956 71.9632 31.476L73.3346 31.6326C74.2022 31.7342 74.6509 32.204 74.3673 32.8474C73.3092 35.2431 70.7484 36.7583 67.2142 36.7583C62.008 36.7583 58.8251 33.3045 58.8251 27.8867H58.8293ZM70.9939 26.1514C70.9728 23.8023 69.3982 22.0923 67.0576 22.0923C64.7169 22.0923 62.9985 23.9462 62.8757 26.1514H70.9939Z" fill="#1F7EAD"/>
<path d="M84.7118 22.2953H82.5404V31.2219C82.5404 32.8641 83.3616 33.2239 84.3859 33.2239H84.4071C84.8007 33.2239 85.6557 33.4609 85.825 34.2228L86.0027 35.0567C86.172 35.8312 85.8673 36.4069 85.08 36.5423C84.733 36.5973 84.3266 36.6439 83.8653 36.6566C80.8051 36.7455 78.4475 35.1498 78.4687 31.8991V22.2953H77.2539C76.5724 22.2953 76.018 21.7408 76.018 21.0593V20.3863C76.018 19.5864 76.4582 19.1504 77.2454 19.1504H78.4729V16.2511C78.4729 15.5696 79.0274 15.0151 79.7088 15.0151H81.3045C81.986 15.0151 82.5404 15.5696 82.5404 16.2511V19.1504H84.7118C85.3932 19.1504 85.9477 19.7049 85.9477 20.3863V21.0593C85.9477 21.7408 85.3932 22.2953 84.7118 22.2953Z" fill="#1F7EAD"/>
<path d="M95.7294 22.2953H93.5581V31.2219C93.5581 32.8641 94.3792 33.2239 95.4035 33.2239H95.4247C95.8183 33.2239 96.6733 33.4609 96.8426 34.2228L97.0246 35.0567C97.1939 35.8312 96.8891 36.4069 96.1019 36.5423C95.7548 36.5973 95.3485 36.6439 94.8871 36.6566C91.8269 36.7455 89.4693 35.1498 89.4905 31.8991V22.2953H88.2757C87.5943 22.2953 87.0398 21.7408 87.0398 21.0593V20.3863C87.0398 19.5864 87.48 19.1504 88.2673 19.1504H89.4947V16.2511C89.4947 15.5696 90.0492 15.0151 90.7307 15.0151H92.3264C93.0078 15.0151 93.5623 15.5696 93.5623 16.2511V19.1504H95.7336C96.4151 19.1504 96.9696 19.7049 96.9696 20.3863V21.0593C96.9696 21.7408 96.4151 22.2953 95.7336 22.2953H95.7294Z" fill="#1F7EAD"/>
<path d="M98.4383 27.8867C98.4383 22.5579 101.664 18.9263 106.611 18.9263C110.861 18.9263 114.505 21.5928 114.505 27.6497V27.6624C114.505 28.3439 113.951 28.8983 113.269 28.8983H102.476C102.51 31.857 104.254 33.5881 106.882 33.5881C108.233 33.5881 109.346 33.1394 110.031 32.2633C110.472 31.6919 110.874 31.3956 111.572 31.476L112.943 31.6326C113.811 31.7342 114.26 32.204 113.976 32.8474C112.918 35.2431 110.357 36.7583 106.823 36.7583C101.617 36.7583 98.434 33.3045 98.434 27.8867H98.4383ZM110.607 26.1514C110.586 23.8023 109.011 22.0923 106.671 22.0923C104.33 22.0923 102.612 23.9462 102.489 26.1514H110.607Z" fill="#1F7EAD"/>
<path d="M118.171 19.1462H119.644C120.325 19.1462 120.88 19.7007 120.88 20.3821V22.0244H121.057C121.688 20.0224 123.339 18.8965 125.32 18.8965H125.612C126.386 18.9303 126.78 19.4129 126.78 20.1874V21.4234C126.78 22.2657 126.441 22.6508 125.849 22.5704C125.536 22.5365 125.197 22.5154 124.892 22.5154C122.653 22.5154 121.002 24.0688 121.002 26.2613V35.1794C121.002 35.8609 120.448 36.4153 119.766 36.4153H118.171C117.489 36.4153 116.935 35.8609 116.935 35.1794V20.3821C116.935 19.7007 117.489 19.1462 118.171 19.1462Z" fill="#1F7EAD"/>
<path d="M137.971 23.1716C137.455 22.4732 136.566 21.9568 135.237 21.9568C133.54 21.9568 132.244 22.7653 132.257 23.9377C132.244 24.9366 132.943 25.5461 134.695 25.9397L137.641 26.5704C140.9 27.2773 142.487 28.7841 142.5 31.2475C142.487 34.5193 139.44 36.7583 135.123 36.7583C131.504 36.7583 129.028 35.387 128.071 33.004C127.745 32.204 128.219 31.6538 129.061 31.5776L130.602 31.4295C131.322 31.3617 131.694 31.6876 132.088 32.3183C132.659 33.2283 133.696 33.6897 135.114 33.6897C137.048 33.6897 138.331 32.8008 138.331 31.6199C138.331 30.6422 137.59 29.9988 136.003 29.6518L133.057 29.0338C129.739 28.3481 128.189 26.6847 128.198 24.1663C128.185 20.9749 131.021 18.9263 135.182 18.9263C138.589 18.9263 140.794 20.2511 141.738 22.4097C142.077 23.2097 141.624 23.7684 140.773 23.8615L139.482 24.0097C138.775 24.0901 138.39 23.7726 137.975 23.1758L137.971 23.1716Z" fill="#1F7EAD"/>
<path d="M9.7156 23.9806C12.3623 23.9806 14.5079 21.835 14.5079 19.1883V15.448C14.5079 12.8013 12.3623 10.6558 9.7156 10.6558C7.06891 10.6558 4.92334 12.8013 4.92334 15.448V19.1883C4.92334 21.835 7.06891 23.9806 9.7156 23.9806Z" stroke="#1F7EAD" stroke-width="3.04962"/>
<path d="M2.96283 27.3193C4.54877 29.4169 7.0719 30.4811 9.60665 30.5346M9.60665 30.5346C12.1414 30.4811 14.6645 29.4169 16.2505 27.3193M9.60665 30.5346V36.686" stroke="#1F7EAD" stroke-width="3.04962" stroke-linecap="round" stroke-linejoin="round"/>
<path d="M15.79 36.5773C20.1679 36.5773 22.24 36.5773 24.7458 32.4873M24.7458 32.4873C24.7458 32.4873 29.2933 24.1596 29.2933 21.68C29.2933 19.2005 27.3026 17.1904 24.8469 17.1904C22.3912 17.1904 20.4005 19.2005 20.4005 21.68C20.4005 24.1596 24.7458 32.4873 24.7458 32.4873ZM24.7458 32.4873C27.2517 36.5773 29.3237 36.5773 33.7017 36.5773" stroke="#1F7EAD" stroke-width="3.04962" stroke-linecap="round" stroke-linejoin="round"/>
<path d="M22.132 10.6558H27.3599" stroke="#1F7EAD" stroke-width="3.04962" stroke-linecap="round" stroke-linejoin="round"/>
</svg>
