<svg width="700" height="300" viewBox="0 0 700 300" fill="none" xmlns="http://www.w3.org/2000/svg">
<rect width="700" height="300" rx="16" fill="url(#paint0_linear_2545_55035)"/>
<path d="M87.5 34H50V72.6861M87.5 34V72.6861M87.5 34H125M87.5 72.6861H50M87.5 72.6861V111.372M87.5 72.6861H125M50 72.6861V111.372M87.5 111.372H50M87.5 111.372V150.058M87.5 111.372H125M50 111.372V150.058M87.5 150.058H50M87.5 150.058V188.745M87.5 150.058H125M50 150.058V188.745M87.5 188.745H50M87.5 188.745V227.431M87.5 188.745H125M50 188.745V227.431M87.5 227.431H50M87.5 227.431V266.117M87.5 227.431H125M50 227.431V266.117H87.5M87.5 266.117H125M125 34V72.6861M125 34H162.5M125 72.6861V111.372M125 72.6861H162.5M125 111.372V150.058M125 111.372H162.5M125 150.058V188.745M125 150.058H162.5M125 188.745V227.431M125 188.745H162.5M125 227.431V266.117M125 227.431H162.5M125 266.117H162.5M162.5 34V72.6861M162.5 34H200M162.5 72.6861V111.372M162.5 72.6861H200M162.5 111.372V150.058M162.5 111.372H200M162.5 150.058V188.745M162.5 150.058H200M162.5 188.745V227.431M162.5 188.745H200M162.5 227.431V266.117M162.5 227.431H200M162.5 266.117H200M200 34V72.6861M200 34H237.5M200 72.6861V111.372M200 72.6861H237.5M200 111.372V150.058M200 111.372H237.5M200 150.058V188.745M200 150.058H237.5M200 188.745V227.431M200 188.745H237.5M200 227.431V266.117M200 227.431H237.5M200 266.117H237.5M237.5 34V72.6861M237.5 34H275M237.5 72.6861V111.372M237.5 72.6861H275M237.5 111.372V150.058M237.5 111.372H275M237.5 150.058V188.745M237.5 150.058H275M237.5 188.745V227.431M237.5 188.745H275M237.5 227.431V266.117M237.5 227.431H275M237.5 266.117H275M275 34V72.6861M275 34H312.5M275 72.6861V111.372M275 72.6861H312.5M275 111.372V150.058M275 111.372H312.5M275 150.058V188.745M275 150.058H312.5M275 188.745V227.431M275 188.745H312.5M275 227.431V266.117M275 227.431H312.5M275 266.117H312.5M312.5 34V72.6861M312.5 34H350M312.5 72.6861V111.372M312.5 72.6861H350M312.5 111.372V150.058M312.5 111.372H350M312.5 150.058V188.745M312.5 150.058H350M312.5 188.745V227.431M312.5 188.745H350M312.5 227.431V266.117M312.5 227.431H350M312.5 266.117H350M350 34V72.6861M350 34H387.5M350 72.6861V111.372M350 72.6861H387.5M350 111.372V150.058M350 111.372H387.5M350 150.058V188.745M350 150.058H387.5M350 188.745V227.431M350 188.745H387.5M350 227.431V266.117M350 227.431H387.5M350 266.117H387.5M387.5 34V72.6861M387.5 34H425M387.5 72.6861V111.372M387.5 72.6861H425M387.5 111.372V150.058M387.5 111.372H425M387.5 150.058V188.745M387.5 150.058H425M387.5 188.745V227.431M387.5 188.745H425M387.5 227.431V266.117M387.5 227.431H425M387.5 266.117H425M425 34V72.6861M425 34H462.5M425 72.6861V111.372M425 72.6861H462.5M425 111.372V150.058M425 111.372H462.5M425 150.058V188.745M425 150.058H462.5M425 188.745V227.431M425 188.745H462.5M425 227.431V266.117M425 227.431H462.5M425 266.117H462.5M462.5 34V72.6861M462.5 34H500M462.5 72.6861V111.372M462.5 72.6861H500M462.5 111.372V150.058M462.5 111.372H500M462.5 150.058V188.745M462.5 150.058H500M462.5 188.745V227.431M462.5 188.745H500M462.5 227.431V266.117M462.5 227.431H500M462.5 266.117H500M500 34V72.6861M500 34H537.5M500 72.6861V111.372M500 72.6861H537.5M500 111.372V150.058M500 111.372H537.5M500 150.058V188.745M500 150.058H537.5M500 188.745V227.431M500 188.745H537.5M500 227.431V266.117M500 227.431H537.5M500 266.117H537.5M537.5 34V72.6861M537.5 34H575M537.5 72.6861V111.372M537.5 72.6861H575M537.5 111.372V150.058M537.5 111.372H575M537.5 150.058V188.745M537.5 150.058H575M537.5 188.745V227.431M537.5 188.745H575M537.5 227.431V266.117M537.5 227.431H575M537.5 266.117H575M575 34V72.6861M575 34H612.5M575 72.6861V111.372M575 72.6861H612.5M575 111.372V150.058M575 111.372H612.5M575 150.058V188.745M575 150.058H612.5M575 188.745V227.431M575 188.745H612.5M575 227.431V266.117M575 227.431H612.5M575 266.117H612.5M612.5 34V72.6861M612.5 34H650V72.6861M612.5 72.6861V111.372M612.5 72.6861H650M612.5 111.372V150.058M612.5 111.372H650M612.5 150.058V188.745M612.5 150.058H650M612.5 188.745V227.431M612.5 188.745H650M612.5 227.431V266.117M612.5 227.431H650M612.5 266.117H650V227.431M650 72.6861V111.372M650 111.372V150.058M650 150.058V188.745M650 188.745V227.431" stroke="url(#paint1_radial_2545_55035)" stroke-opacity="0.24"/>
<path d="M275 150C275 108.579 308.579 75 350 75V75C391.421 75 425 108.579 425 150V150C425 191.421 391.421 225 350 225V225C308.579 225 275 191.421 275 150V150Z" fill="#47C2FF"/>
<path fill-rule="evenodd" clip-rule="evenodd" d="M372.106 165.006C380.393 173.294 393.83 173.294 402.118 165.006C410.405 156.718 410.405 143.282 402.118 134.994C393.83 126.707 380.393 126.707 372.106 134.994L357.1 150L372.106 165.006Z" fill="url(#paint2_linear_2545_55035)" fill-opacity="0.72"/>
<path fill-rule="evenodd" clip-rule="evenodd" d="M365.007 202.117C373.294 193.829 373.294 180.393 365.007 172.105L350 157.099L334.994 172.105C326.707 180.393 326.707 193.829 334.994 202.117C343.282 210.405 356.719 210.405 365.007 202.117Z" fill="url(#paint3_linear_2545_55035)" fill-opacity="0.64"/>
<path fill-rule="evenodd" clip-rule="evenodd" d="M297.882 165.006C289.594 156.718 289.594 143.282 297.882 134.994C306.17 126.707 319.606 126.707 327.894 134.994L342.9 150L327.894 165.006C319.606 173.294 306.17 173.294 297.882 165.006Z" fill="url(#paint4_linear_2545_55035)" fill-opacity="0.56"/>
<path fill-rule="evenodd" clip-rule="evenodd" d="M365.007 127.894C373.294 119.606 373.294 106.17 365.007 97.882C356.719 89.5944 343.282 89.5944 334.994 97.882C326.707 106.17 326.707 119.606 334.994 127.894L350 142.9L365.007 127.894Z" fill="url(#paint5_linear_2545_55035)" fill-opacity="0.8"/>
<defs>
<linearGradient id="paint0_linear_2545_55035" x1="350" y1="0" x2="350" y2="300" gradientUnits="userSpaceOnUse">
<stop stop-color="white" stop-opacity="0.36"/>
<stop offset="1" stop-color="white" stop-opacity="0"/>
</linearGradient>
<radialGradient id="paint1_radial_2545_55035" cx="0" cy="0" r="1" gradientUnits="userSpaceOnUse" gradientTransform="translate(350 150.058) rotate(90) scale(116.058 300)">
<stop stop-color="#717784"/>
<stop offset="1" stop-color="#717784" stop-opacity="0"/>
</radialGradient>
<linearGradient id="paint2_linear_2545_55035" x1="350" y1="91.6662" x2="350" y2="268.575" gradientUnits="userSpaceOnUse">
<stop offset="0.313079" stop-color="white"/>
<stop offset="1" stop-color="white" stop-opacity="0"/>
</linearGradient>
<linearGradient id="paint3_linear_2545_55035" x1="350" y1="91.666" x2="350" y2="268.575" gradientUnits="userSpaceOnUse">
<stop offset="0.313079" stop-color="white"/>
<stop offset="1" stop-color="white" stop-opacity="0"/>
</linearGradient>
<linearGradient id="paint4_linear_2545_55035" x1="350" y1="91.6662" x2="350" y2="268.575" gradientUnits="userSpaceOnUse">
<stop offset="0.313079" stop-color="white"/>
<stop offset="1" stop-color="white" stop-opacity="0"/>
</linearGradient>
<linearGradient id="paint5_linear_2545_55035" x1="350" y1="91.6663" x2="350" y2="268.575" gradientUnits="userSpaceOnUse">
<stop offset="0.313079" stop-color="white"/>
<stop offset="1" stop-color="white" stop-opacity="0"/>
</linearGradient>
</defs>
</svg>
